<svg xmlns="http://www.w3.org/2000/svg" xmlns:xlink="http://www.w3.org/1999/xlink" viewBox="0 0 1920 1200">
  <defs>
    <style>
      .cls-1 {
        clip-path: url(#clip-Projets_-_Desktop);
      }

      .cls-2 {
        fill: #5665c8;
      }

      .cls-10, .cls-11, .cls-15, .cls-3, .cls-5, .cls-6, .cls-7 {
        fill: #fff;
      }

      .cls-17, .cls-4 {
        fill: #707070;
      }

      .cls-4 {
        font-size: 39px;
      }

      .cls-17, .cls-4, .cls-5, .cls-7, .cls-8 {
        font-family: SegoeUI, Segoe UI;
      }

      .cls-5 {
        font-size: 70px;
      }

      .cls-6 {
        font-size: 16px;
        font-family: SegoeUI-LightItalic, Segoe UI;
        font-style: italic;
      }

      .cls-15, .cls-18, .cls-19, .cls-6 {
        font-weight: 300;
      }

      .cls-7 {
        font-size: 26px;
      }

      .cls-8 {
        fill: #d4d4d4;
      }

      .cls-18, .cls-8 {
        font-size: 18px;
      }

      .cls-9 {
        fill: #f88;
      }

      .cls-10 {
        font-size: 24px;
      }

      .cls-10, .cls-11 {
        font-family: SegoeUI-Semibold, Segoe UI;
        font-weight: 600;
      }

      .cls-11 {
        font-size: 30px;
      }

      .cls-12 {
        fill: #f0f0f0;
      }

      .cls-13 {
        fill: #d80027;
      }

      .cls-14 {
        fill: #0052b4;
      }

      .cls-15 {
        font-size: 35px;
      }

      .cls-15, .cls-18, .cls-19 {
        font-family: SegoeUI-Semilight, Segoe UI;
      }

      .cls-16 {
        opacity: 0.51;
        fill: url(#pattern);
      }

      .cls-17 {
        font-size: 20px;
      }

      .cls-19 {
        font-size: 14px;
      }

      .cls-20 {
        fill: #001736;
      }
    </style>
    <pattern id="pattern" preserveAspectRatio="none" width="100%" height="100%" viewBox="0 0 798 179">
      <image width="798" height="179" xlink:href="../../../../Pictures/ACS/banner_spaceinvaders.png"/>
    </pattern>
    <clipPath id="clip-Projets_-_Desktop">
      <rect width="1920" height="1200"/>
    </clipPath>
    <image id="image" width="49" height="49" xlink:href="../../../../Downloads/GitHub-Mark/PNG/GitHub-Mark-Light-120px-plus.png"/>
  </defs>
  <g id="Projets_-_Desktop" data-name="Projets - Desktop" class="cls-1">
    <rect class="cls-20" width="1920" height="1200"/>
    <rect id="Rectangle_1" data-name="Rectangle 1" class="cls-2" width="1920" height="101"/>
    <g id="Groupe_1" data-name="Groupe 1" transform="translate(208 17)">
      <circle id="Ellipse_1" data-name="Ellipse 1" class="cls-3" cx="35.03" cy="35.03" r="35.03" transform="translate(10 4)"/>
      <text id="L" class="cls-4" transform="translate(36.022 50.003)"><tspan x="0" y="0">L</tspan></text>
    </g>
    <text id="PROJETS" class="cls-5" transform="translate(960.182 -0.18)"><tspan x="0.488" y="76">PROJETS</tspan></text>
    <text id="R_2018_-_Lucas_van_den_Berg" data-name="R 2018 - Lucas van den Berg" class="cls-6" transform="translate(236 1174)"><tspan x="0" y="17">R 2018 - Lucas van den Berg</tspan></text>
    <text id="Contactez-moi" class="cls-7" transform="translate(303 848)"><tspan x="-84.291" y="0">Contactez-moi</tspan></text>
    <rect id="Rectangle_8" data-name="Rectangle 8" class="cls-3" width="320" height="38" rx="8" transform="translate(218 868)"/>
    <rect id="Rectangle_10" data-name="Rectangle 10" class="cls-3" width="650" height="108" rx="8" transform="translate(218 926)"/>
    <rect id="Rectangle_9" data-name="Rectangle 9" class="cls-3" width="309" height="38" rx="8" transform="translate(559 868)"/>
    <text id="Nom_complet" data-name="Nom complet" class="cls-8" transform="translate(281 894)"><tspan x="-54.633" y="0">Nom complet</tspan></text>
    <text id="Message" class="cls-8" transform="translate(261 949)"><tspan x="-35.011" y="0">Message</tspan></text>
    <text id="Email" class="cls-8" transform="translate(587 894)"><tspan x="-21.243" y="0">Email</tspan></text>
    <g id="Groupe_45" data-name="Groupe 45" transform="translate(-146)">
      <rect id="Rectangle_11" data-name="Rectangle 11" class="cls-9" width="354" height="38" rx="8" transform="translate(367 1061)"/>
      <text id="ENVOYER" class="cls-7" transform="translate(544 1089)"><tspan x="-55.079" y="0">ENVOYER</tspan></text>
    </g>
    <g id="resume" transform="translate(351 27.762)">
      <g id="Groupe_9" data-name="Groupe 9" transform="translate(0)">
        <g id="Groupe_8" data-name="Groupe 8">
          <path id="Tracé_2" data-name="Tracé 2" class="cls-3" d="M32.154,11.55a.777.777,0,0,0,.776-.776V2.329A2.332,2.332,0,0,0,30.6,0H2.336A2.332,2.332,0,0,0,.007,2.329v35.1a2.332,2.332,0,0,0,2.329,2.329H30.6a2.332,2.332,0,0,0,2.329-2.329V31.707a.776.776,0,0,0-1.553,0v5.721a.777.777,0,0,1-.776.776H2.336a.777.777,0,0,1-.776-.776V2.329a.777.777,0,0,1,.776-.776H30.6a.777.777,0,0,1,.776.776v8.444A.777.777,0,0,0,32.154,11.55Z" transform="translate(-0.007)"/>
        </g>
      </g>
      <g id="Groupe_11" data-name="Groupe 11" transform="translate(9.318 4.193)">
        <g id="Groupe_10" data-name="Groupe 10">
          <path id="Tracé_3" data-name="Tracé 3" class="cls-3" d="M127.151,54a7.14,7.14,0,0,0-4.9,12.336.769.769,0,0,0,.083.078,7.13,7.13,0,0,0,9.635,0,.777.777,0,0,0,.083-.078A7.14,7.14,0,0,0,127.151,54Zm0,12.735a5.561,5.561,0,0,1-3.377-1.139,3.882,3.882,0,0,1,6.754,0A5.561,5.561,0,0,1,127.151,66.735Zm-1.242-5.9v-.5a1.242,1.242,0,1,1,2.485,0v.5a1.242,1.242,0,1,1-2.485,0Zm5.741,3.625a5.387,5.387,0,0,0-2.288-1.918,2.781,2.781,0,0,0,.584-1.707v-.5a2.8,2.8,0,0,0-5.591,0v.5a2.781,2.781,0,0,0,.584,1.707,5.387,5.387,0,0,0-2.288,1.918,5.591,5.591,0,1,1,9,0Z" transform="translate(-120.007 -54)"/>
        </g>
      </g>
      <g id="Groupe_13" data-name="Groupe 13" transform="translate(15.685 34.011)">
        <g id="Groupe_12" data-name="Groupe 12">
          <path id="Tracé_4" data-name="Tracé 4" class="cls-3" d="M206.977,438h-4.193a.777.777,0,0,0,0,1.553h4.193a.777.777,0,0,0,0-1.553Z" transform="translate(-202.007 -438)"/>
        </g>
      </g>
      <g id="Groupe_15" data-name="Groupe 15" transform="translate(8.852 29.662)">
        <g id="Groupe_14" data-name="Groupe 14">
          <path id="Tracé_5" data-name="Tracé 5" class="cls-3" d="M125.81,382H114.784a.777.777,0,0,0,0,1.553H125.81a.777.777,0,1,0,0-1.553Z" transform="translate(-114.007 -382)"/>
        </g>
      </g>
      <g id="Groupe_17" data-name="Groupe 17" transform="translate(8.852 25.314)">
        <g id="Groupe_16" data-name="Groupe 16">
          <path id="Tracé_6" data-name="Tracé 6" class="cls-3" d="M125.81,326H114.784a.777.777,0,0,0,0,1.553H125.81a.777.777,0,1,0,0-1.553Z" transform="translate(-114.007 -326)"/>
        </g>
      </g>
      <g id="Groupe_19" data-name="Groupe 19" transform="translate(5.535 20.965)">
        <g id="Groupe_18" data-name="Groupe 18">
          <path id="Tracé_7" data-name="Tracé 7" class="cls-3" d="M72.613,270.228a.776.776,0,1,0,.228.549A.783.783,0,0,0,72.613,270.228Z" transform="translate(-71.287 -270)"/>
        </g>
      </g>
      <g id="Groupe_21" data-name="Groupe 21" transform="translate(5.535 25.314)">
        <g id="Groupe_20" data-name="Groupe 20">
          <path id="Tracé_8" data-name="Tracé 8" class="cls-3" d="M72.613,326.227a.776.776,0,1,0,.228.549A.784.784,0,0,0,72.613,326.227Z" transform="translate(-71.287 -326)"/>
        </g>
      </g>
      <g id="Groupe_23" data-name="Groupe 23" transform="translate(5.535 29.662)">
        <g id="Groupe_22" data-name="Groupe 22">
          <path id="Tracé_9" data-name="Tracé 9" class="cls-3" d="M72.613,382.228a.776.776,0,1,0,.228.549A.784.784,0,0,0,72.613,382.228Z" transform="translate(-71.287 -382)"/>
        </g>
      </g>
      <g id="Groupe_25" data-name="Groupe 25" transform="translate(8.852 20.965)">
        <g id="Groupe_24" data-name="Groupe 24">
          <path id="Tracé_10" data-name="Tracé 10" class="cls-3" d="M125.81,270H114.784a.777.777,0,0,0,0,1.553H125.81a.777.777,0,1,0,0-1.553Z" transform="translate(-114.007 -270)"/>
        </g>
      </g>
      <g id="Groupe_27" data-name="Groupe 27" transform="translate(23.107 9.681)">
        <g id="Groupe_26" data-name="Groupe 26">
          <path id="Tracé_11" data-name="Tracé 11" class="cls-3" d="M312.608,125.114a3.261,3.261,0,0,0-4.455,1.194l-9.772,16.925a.777.777,0,0,0-.1.3l-.688,6.161a.776.776,0,0,0,1.232.711l4.992-3.676a.776.776,0,0,0,.212-.237l9.772-16.925A3.265,3.265,0,0,0,312.608,125.114ZM299.334,148.1l.359-3.217,2.247,1.3Zm3.739-3.059-2.959-1.708,7.841-13.582,2.959,1.708Zm9.383-16.252-.765,1.326-2.959-1.708.765-1.326a1.708,1.708,0,0,1,2.959,1.708Z" transform="translate(-297.589 -124.675)"/>
        </g>
      </g>
    </g>
    <g id="Groupe_5" data-name="Groupe 5" transform="translate(398.402 30.82)">
      <text id="CV" class="cls-10" transform="translate(0 26)"><tspan x="0" y="0">CV</tspan></text>
    </g>
    <text id="Projets-2" data-name="Projets" class="cls-10" transform="translate(552.842 58.349)"><tspan x="0" y="0">Projets</tspan></text>
    <g id="folder" transform="translate(500.852 26.768)">
      <path id="Tracé_12" data-name="Tracé 12" class="cls-3" d="M21.255,4.576,17.986,0H3.922V2.615H1.961V5.23H0V39.222H39.222V4.576ZM1.307,37.914V6.537H13.391l3.268,4.576h.008L19.733,15.4a.655.655,0,0,0,.531.273v.02h17.65V37.914ZM37.914,14.381h-17.3l-2.34-3.268H37.914Zm0-4.576H17.339l-3.08-4.3h0l-.194-.273H3.268V3.922H15.352L18.62,8.5H37.914ZM19.294,7.191,16.025,2.615H5.23V1.307H17.313l3.268,4.576H37.914V7.191Z"/>
      <path id="Tracé_13" data-name="Tracé 13" class="cls-3" d="M27,48.074H45.3V35H27Zm1.307-11.766H44V46.766H28.307Z" transform="translate(-9.35 -12.121)"/>
      <rect id="Rectangle_5" data-name="Rectangle 5" class="cls-3" width="6.537" height="1.307" transform="translate(21.572 26.148)"/>
      <rect id="Rectangle_6" data-name="Rectangle 6" class="cls-3" width="10.459" height="1.307" transform="translate(21.572 28.762)"/>
      <rect id="Rectangle_7" data-name="Rectangle 7" class="cls-3" width="10.459" height="1.307" transform="translate(21.572 31.377)"/>
    </g>
    <g id="Groupe_7" data-name="Groupe 7" transform="translate(690.461 14)">
      <text id="Contact" class="cls-10" transform="translate(48.931 41.291)"><tspan x="0" y="0">Contact</tspan></text>
      <text id="_" data-name="@" class="cls-11" transform="translate(0 11)"><tspan x="0" y="32">@</tspan></text>
    </g>
    <g id="france" transform="translate(1367.941 12.301)">
      <circle id="Ellipse_2" data-name="Ellipse 2" class="cls-12" cx="39.379" cy="39.379" r="39.379"/>
      <path id="Tracé_14" data-name="Tracé 14" class="cls-13" d="M370.725,52.853a39.393,39.393,0,0,0-25.682-36.93v73.86A39.394,39.394,0,0,0,370.725,52.853Z" transform="translate(-291.967 -13.474)"/>
      <path id="Tracé_15" data-name="Tracé 15" class="cls-14" d="M0,52.853a39.393,39.393,0,0,0,25.682,36.93V15.923A39.393,39.393,0,0,0,0,52.853Z" transform="translate(0 -13.474)"/>
    </g>
    <g id="united-kingdom" transform="translate(1490.941 12.301)">
      <circle id="Ellipse_3" data-name="Ellipse 3" class="cls-12" cx="39.379" cy="39.379" r="39.379"/>
      <g id="Groupe_28" data-name="Groupe 28" transform="translate(1.357 1.357)">
        <path id="Tracé_16" data-name="Tracé 16" class="cls-14" d="M15.6,100.142a39.236,39.236,0,0,0-6.784,13.7H29.305Z" transform="translate(-8.819 -86.094)"/>
        <path id="Tracé_17" data-name="Tracé 17" class="cls-14" d="M390.491,113.845a39.241,39.241,0,0,0-6.784-13.7l-13.7,13.7Z" transform="translate(-314.445 -86.095)"/>
        <path id="Tracé_18" data-name="Tracé 18" class="cls-14" d="M8.819,322.784a39.24,39.24,0,0,0,6.784,13.7l13.7-13.7Z" transform="translate(-8.819 -274.488)"/>
        <path id="Tracé_19" data-name="Tracé 19" class="cls-14" d="M336.484,15.6a39.238,39.238,0,0,0-13.7-6.784V29.3Z" transform="translate(-274.487 -8.819)"/>
        <path id="Tracé_20" data-name="Tracé 20" class="cls-14" d="M100.142,383.707a39.24,39.24,0,0,0,13.7,6.784V370.005Z" transform="translate(-86.094 -314.445)"/>
        <path id="Tracé_21" data-name="Tracé 21" class="cls-14" d="M113.844,8.819a39.239,39.239,0,0,0-13.7,6.784l13.7,13.7Z" transform="translate(-86.094 -8.819)"/>
        <path id="Tracé_22" data-name="Tracé 22" class="cls-14" d="M322.783,390.491a39.242,39.242,0,0,0,13.7-6.784l-13.7-13.7Z" transform="translate(-274.487 -314.445)"/>
        <path id="Tracé_23" data-name="Tracé 23" class="cls-14" d="M370.005,322.784l13.7,13.7a39.24,39.24,0,0,0,6.784-13.7Z" transform="translate(-314.445 -274.488)"/>
      </g>
      <g id="Groupe_29" data-name="Groupe 29">
        <path id="Tracé_24" data-name="Tracé 24" class="cls-13" d="M78.425,34.243H44.516V.333a39.741,39.741,0,0,0-10.273,0V34.243H.333a39.741,39.741,0,0,0,0,10.273H34.243v33.91a39.739,39.739,0,0,0,10.273,0V44.516h33.91a39.739,39.739,0,0,0,0-10.273Z"/>
        <path id="Tracé_25" data-name="Tracé 25" class="cls-13" d="M322.783,322.783h0l17.572,17.572q1.212-1.212,2.315-2.528l-15.044-15.044h-4.843Z" transform="translate(-273.131 -273.131)"/>
        <path id="Tracé_26" data-name="Tracé 26" class="cls-13" d="M92.553,322.784h0L74.98,340.356q1.212,1.212,2.528,2.315l15.044-15.045v-4.842Z" transform="translate(-63.446 -273.132)"/>
        <path id="Tracé_27" data-name="Tracé 27" class="cls-13" d="M79.82,92.553h0L62.248,74.98q-1.212,1.212-2.315,2.528L74.978,92.553H79.82Z" transform="translate(-50.714 -63.446)"/>
        <path id="Tracé_28" data-name="Tracé 28" class="cls-13" d="M322.783,79.821h0l17.573-17.573q-1.212-1.212-2.528-2.315L322.783,74.979Z" transform="translate(-273.131 -50.715)"/>
      </g>
    </g>
    <text id="À_l_ACS_on_réalise_des_projets_en_groupe_ou_en_autonomie_en_multipliant_petit_à_petit_les_technologies_utilisées._En_voici_quelques-uns_:" data-name="À l&apos;ACS, on réalise des projets en groupe ou en autonomie en multipliant petit à petit les technologies utilisées. En voici quelques-uns :" class="cls-15" transform="translate(501 160)"><tspan x="0" y="38">À l&apos;ACS, on réalise des projets en groupe ou en </tspan><tspan x="0" y="85">autonomie en multipliant petit à petit les technologies </tspan><tspan x="0" y="132">utilisées. En voici quelques-uns :</tspan></text>
    <g id="Groupe_33" data-name="Groupe 33" transform="translate(167 164)">
      <rect id="Rectangle_12" data-name="Rectangle 12" class="cls-3" width="275" height="144" transform="translate(51 205)"/>
      <g id="Groupe_32" data-name="Groupe 32">
        <rect id="banner_spaceinvaders" class="cls-16" width="275" height="62" transform="translate(51 205)"/>
        <use id="GitHub-Mark-Light-120px-plus" transform="translate(65 212)" xlink:href="#image"/>
        <g id="Groupe_30" data-name="Groupe 30" transform="translate(203 215)">
          <g id="Groupe_31" data-name="Groupe 31" transform="translate(71 -2)">
            <rect id="Rectangle_13" data-name="Rectangle 13" class="cls-3" width="70" height="39" rx="8" transform="translate(-25 4)"/>
            <text id="Demo" class="cls-17" transform="translate(-16 30)"><tspan x="0" y="0">Demo</tspan></text>
          </g>
        </g>
        <text id="_3_jours" data-name="3 jours" class="cls-18" transform="translate(267 284)"><tspan x="0" y="0">3 jours</tspan></text>
        <text id="Space_Invaders" data-name="Space Invaders" class="cls-18" transform="translate(58 286)"><tspan x="0" y="0">Space Invaders</tspan></text>
        <text id="JS_:_Evènements_Intervaux_etc._Lorem_Ipsum_dolor_sit_amet." data-name="JS : Evènements, Intervaux, etc.
Lorem Ipsum dolor sit amet." class="cls-19" transform="translate(58 304)"><tspan x="0" y="15">JS : Evènements, Intervaux, etc.</tspan><tspan x="0" y="34">Lorem Ipsum dolor sit amet.</tspan></text>
      </g>
    </g>
    <g id="Groupe_41" data-name="Groupe 41" transform="translate(167 395)">
      <rect id="Rectangle_12-2" data-name="Rectangle 12" class="cls-3" width="275" height="144" transform="translate(51 205)"/>
      <g id="Groupe_32-2" data-name="Groupe 32">
        <rect id="banner_spaceinvaders-2" data-name="banner_spaceinvaders" class="cls-16" width="275" height="62" transform="translate(51 205)"/>
        <use id="GitHub-Mark-Light-120px-plus-2" data-name="GitHub-Mark-Light-120px-plus" transform="translate(65 212)" xlink:href="#image"/>
        <g id="Groupe_30-2" data-name="Groupe 30" transform="translate(203 215)">
          <g id="Groupe_31-2" data-name="Groupe 31" transform="translate(71 -2)">
            <rect id="Rectangle_13-2" data-name="Rectangle 13" class="cls-3" width="70" height="39" rx="8" transform="translate(-25 4)"/>
            <text id="Demo-2" data-name="Demo" class="cls-17" transform="translate(-16 30)"><tspan x="0" y="0">Demo</tspan></text>
          </g>
        </g>
        <text id="_3_jours-2" data-name="3 jours" class="cls-18" transform="translate(267 284)"><tspan x="0" y="0">3 jours</tspan></text>
        <text id="Space_Invaders-2" data-name="Space Invaders" class="cls-18" transform="translate(58 286)"><tspan x="0" y="0">Space Invaders</tspan></text>
        <text id="JS_:_Evènements_Intervaux_etc._Lorem_Ipsum_dolor_sit_amet.-2" data-name="JS : Evènements, Intervaux, etc.
Lorem Ipsum dolor sit amet." class="cls-19" transform="translate(58 304)"><tspan x="0" y="15">JS : Evènements, Intervaux, etc.</tspan><tspan x="0" y="34">Lorem Ipsum dolor sit amet.</tspan></text>
      </g>
    </g>
    <g id="Groupe_38" data-name="Groupe 38" transform="translate(536 164)">
      <rect id="Rectangle_12-3" data-name="Rectangle 12" class="cls-3" width="275" height="144" transform="translate(51 205)"/>
      <g id="Groupe_32-3" data-name="Groupe 32">
        <rect id="banner_spaceinvaders-3" data-name="banner_spaceinvaders" class="cls-16" width="275" height="62" transform="translate(51 205)"/>
        <use id="GitHub-Mark-Light-120px-plus-3" data-name="GitHub-Mark-Light-120px-plus" transform="translate(65 212)" xlink:href="#image"/>
        <g id="Groupe_30-3" data-name="Groupe 30" transform="translate(203 215)">
          <g id="Groupe_31-3" data-name="Groupe 31" transform="translate(71 -2)">
            <rect id="Rectangle_13-3" data-name="Rectangle 13" class="cls-3" width="70" height="39" rx="8" transform="translate(-25 4)"/>
            <text id="Demo-3" data-name="Demo" class="cls-17" transform="translate(-16 30)"><tspan x="0" y="0">Demo</tspan></text>
          </g>
        </g>
        <text id="_3_jours-3" data-name="3 jours" class="cls-18" transform="translate(267 284)"><tspan x="0" y="0">3 jours</tspan></text>
        <text id="Space_Invaders-3" data-name="Space Invaders" class="cls-18" transform="translate(58 286)"><tspan x="0" y="0">Space Invaders</tspan></text>
        <text id="JS_:_Evènements_Intervaux_etc._Lorem_Ipsum_dolor_sit_amet.-3" data-name="JS : Evènements, Intervaux, etc.
Lorem Ipsum dolor sit amet." class="cls-19" transform="translate(58 304)"><tspan x="0" y="15">JS : Evènements, Intervaux, etc.</tspan><tspan x="0" y="34">Lorem Ipsum dolor sit amet.</tspan></text>
      </g>
    </g>
    <g id="Groupe_42" data-name="Groupe 42" transform="translate(536 395)">
      <rect id="Rectangle_12-4" data-name="Rectangle 12" class="cls-3" width="275" height="144" transform="translate(51 205)"/>
      <g id="Groupe_32-4" data-name="Groupe 32">
        <rect id="banner_spaceinvaders-4" data-name="banner_spaceinvaders" class="cls-16" width="275" height="62" transform="translate(51 205)"/>
        <use id="GitHub-Mark-Light-120px-plus-4" data-name="GitHub-Mark-Light-120px-plus" transform="translate(65 212)" xlink:href="#image"/>
        <g id="Groupe_30-4" data-name="Groupe 30" transform="translate(203 215)">
          <g id="Groupe_31-4" data-name="Groupe 31" transform="translate(71 -2)">
            <rect id="Rectangle_13-4" data-name="Rectangle 13" class="cls-3" width="70" height="39" rx="8" transform="translate(-25 4)"/>
            <text id="Demo-4" data-name="Demo" class="cls-17" transform="translate(-16 30)"><tspan x="0" y="0">Demo</tspan></text>
          </g>
        </g>
        <text id="_3_jours-4" data-name="3 jours" class="cls-18" transform="translate(267 284)"><tspan x="0" y="0">3 jours</tspan></text>
        <text id="Space_Invaders-4" data-name="Space Invaders" class="cls-18" transform="translate(58 286)"><tspan x="0" y="0">Space Invaders</tspan></text>
        <text id="JS_:_Evènements_Intervaux_etc._Lorem_Ipsum_dolor_sit_amet.-4" data-name="JS : Evènements, Intervaux, etc.
Lorem Ipsum dolor sit amet." class="cls-19" transform="translate(58 304)"><tspan x="0" y="15">JS : Evènements, Intervaux, etc.</tspan><tspan x="0" y="34">Lorem Ipsum dolor sit amet.</tspan></text>
      </g>
    </g>
    <g id="Groupe_39" data-name="Groupe 39" transform="translate(896 164)">
      <rect id="Rectangle_12-5" data-name="Rectangle 12" class="cls-3" width="275" height="144" transform="translate(51 205)"/>
      <g id="Groupe_32-5" data-name="Groupe 32">
        <rect id="banner_spaceinvaders-5" data-name="banner_spaceinvaders" class="cls-16" width="275" height="62" transform="translate(51 205)"/>
        <use id="GitHub-Mark-Light-120px-plus-5" data-name="GitHub-Mark-Light-120px-plus" transform="translate(65 212)" xlink:href="#image"/>
        <g id="Groupe_30-5" data-name="Groupe 30" transform="translate(203 215)">
          <g id="Groupe_31-5" data-name="Groupe 31" transform="translate(71 -2)">
            <rect id="Rectangle_13-5" data-name="Rectangle 13" class="cls-3" width="70" height="39" rx="8" transform="translate(-25 4)"/>
            <text id="Demo-5" data-name="Demo" class="cls-17" transform="translate(-16 30)"><tspan x="0" y="0">Demo</tspan></text>
          </g>
        </g>
        <text id="_3_jours-5" data-name="3 jours" class="cls-18" transform="translate(267 284)"><tspan x="0" y="0">3 jours</tspan></text>
        <text id="Space_Invaders-5" data-name="Space Invaders" class="cls-18" transform="translate(58 286)"><tspan x="0" y="0">Space Invaders</tspan></text>
        <text id="JS_:_Evènements_Intervaux_etc._Lorem_Ipsum_dolor_sit_amet.-5" data-name="JS : Evènements, Intervaux, etc.
Lorem Ipsum dolor sit amet." class="cls-19" transform="translate(58 304)"><tspan x="0" y="15">JS : Evènements, Intervaux, etc.</tspan><tspan x="0" y="34">Lorem Ipsum dolor sit amet.</tspan></text>
      </g>
    </g>
    <g id="Groupe_43" data-name="Groupe 43" transform="translate(896 395)">
      <rect id="Rectangle_12-6" data-name="Rectangle 12" class="cls-3" width="275" height="144" transform="translate(51 205)"/>
      <g id="Groupe_32-6" data-name="Groupe 32">
        <rect id="banner_spaceinvaders-6" data-name="banner_spaceinvaders" class="cls-16" width="275" height="62" transform="translate(51 205)"/>
        <use id="GitHub-Mark-Light-120px-plus-6" data-name="GitHub-Mark-Light-120px-plus" transform="translate(65 212)" xlink:href="#image"/>
        <g id="Groupe_30-6" data-name="Groupe 30" transform="translate(203 215)">
          <g id="Groupe_31-6" data-name="Groupe 31" transform="translate(71 -2)">
            <rect id="Rectangle_13-6" data-name="Rectangle 13" class="cls-3" width="70" height="39" rx="8" transform="translate(-25 4)"/>
            <text id="Demo-6" data-name="Demo" class="cls-17" transform="translate(-16 30)"><tspan x="0" y="0">Demo</tspan></text>
          </g>
        </g>
        <text id="_3_jours-6" data-name="3 jours" class="cls-18" transform="translate(267 284)"><tspan x="0" y="0">3 jours</tspan></text>
        <text id="Space_Invaders-6" data-name="Space Invaders" class="cls-18" transform="translate(58 286)"><tspan x="0" y="0">Space Invaders</tspan></text>
        <text id="JS_:_Evènements_Intervaux_etc._Lorem_Ipsum_dolor_sit_amet.-6" data-name="JS : Evènements, Intervaux, etc.
Lorem Ipsum dolor sit amet." class="cls-19" transform="translate(58 304)"><tspan x="0" y="15">JS : Evènements, Intervaux, etc.</tspan><tspan x="0" y="34">Lorem Ipsum dolor sit amet.</tspan></text>
      </g>
    </g>
    <g id="Groupe_40" data-name="Groupe 40" transform="translate(1244 164)">
      <rect id="Rectangle_12-7" data-name="Rectangle 12" class="cls-3" width="275" height="144" transform="translate(51 205)"/>
      <g id="Groupe_32-7" data-name="Groupe 32">
        <rect id="banner_spaceinvaders-7" data-name="banner_spaceinvaders" class="cls-16" width="275" height="62" transform="translate(51 205)"/>
        <use id="GitHub-Mark-Light-120px-plus-7" data-name="GitHub-Mark-Light-120px-plus" transform="translate(65 212)" xlink:href="#image"/>
        <g id="Groupe_30-7" data-name="Groupe 30" transform="translate(203 215)">
          <g id="Groupe_31-7" data-name="Groupe 31" transform="translate(71 -2)">
            <rect id="Rectangle_13-7" data-name="Rectangle 13" class="cls-3" width="70" height="39" rx="8" transform="translate(-25 4)"/>
            <text id="Demo-7" data-name="Demo" class="cls-17" transform="translate(-16 30)"><tspan x="0" y="0">Demo</tspan></text>
          </g>
        </g>
        <text id="_3_jours-7" data-name="3 jours" class="cls-18" transform="translate(267 284)"><tspan x="0" y="0">3 jours</tspan></text>
        <text id="Space_Invaders-7" data-name="Space Invaders" class="cls-18" transform="translate(58 286)"><tspan x="0" y="0">Space Invaders</tspan></text>
        <text id="JS_:_Evènements_Intervaux_etc._Lorem_Ipsum_dolor_sit_amet.-7" data-name="JS : Evènements, Intervaux, etc.
Lorem Ipsum dolor sit amet." class="cls-19" transform="translate(58 304)"><tspan x="0" y="15">JS : Evènements, Intervaux, etc.</tspan><tspan x="0" y="34">Lorem Ipsum dolor sit amet.</tspan></text>
      </g>
    </g>
    <g id="Groupe_44" data-name="Groupe 44" transform="translate(1244 395)">
      <rect id="Rectangle_12-8" data-name="Rectangle 12" class="cls-3" width="275" height="144" transform="translate(51 205)"/>
      <g id="Groupe_32-8" data-name="Groupe 32">
        <rect id="banner_spaceinvaders-8" data-name="banner_spaceinvaders" class="cls-16" width="275" height="62" transform="translate(51 205)"/>
        <use id="GitHub-Mark-Light-120px-plus-8" data-name="GitHub-Mark-Light-120px-plus" transform="translate(65 212)" xlink:href="#image"/>
        <g id="Groupe_30-8" data-name="Groupe 30" transform="translate(203 215)">
          <g id="Groupe_31-8" data-name="Groupe 31" transform="translate(71 -2)">
            <rect id="Rectangle_13-8" data-name="Rectangle 13" class="cls-3" width="70" height="39" rx="8" transform="translate(-25 4)"/>
            <text id="Demo-8" data-name="Demo" class="cls-17" transform="translate(-16 30)"><tspan x="0" y="0">Demo</tspan></text>
          </g>
        </g>
        <text id="_3_jours-8" data-name="3 jours" class="cls-18" transform="translate(267 284)"><tspan x="0" y="0">3 jours</tspan></text>
        <text id="Space_Invaders-8" data-name="Space Invaders" class="cls-18" transform="translate(58 286)"><tspan x="0" y="0">Space Invaders</tspan></text>
        <text id="JS_:_Evènements_Intervaux_etc._Lorem_Ipsum_dolor_sit_amet.-8" data-name="JS : Evènements, Intervaux, etc.
Lorem Ipsum dolor sit amet." class="cls-19" transform="translate(58 304)"><tspan x="0" y="15">JS : Evènements, Intervaux, etc.</tspan><tspan x="0" y="34">Lorem Ipsum dolor sit amet.</tspan></text>
      </g>
    </g>
  </g>
</svg>
