<?xml version="1.0" encoding="UTF-8" standalone="no"?>
<!-- Generator: Adobe Illustrator 16.0.0, SVG Export Plug-In . SVG Version: 6.00 Build 0)  -->

<svg
   xmlns:dc="http://purl.org/dc/elements/1.1/"
   xmlns:cc="http://creativecommons.org/ns#"
   xmlns:rdf="http://www.w3.org/1999/02/22-rdf-syntax-ns#"
   xmlns:svg="http://www.w3.org/2000/svg"
   xmlns="http://www.w3.org/2000/svg"
   xmlns:sodipodi="http://sodipodi.sourceforge.net/DTD/sodipodi-0.dtd"
   xmlns:inkscape="http://www.inkscape.org/namespaces/inkscape"
   version="1.1"
   id="Calque_1"
   x="0px"
   y="0px"
   width="64px"
   height="64px"
   viewBox="0 0 64 64"
   enable-background="new 0 0 64 64"
   xml:space="preserve"
   sodipodi:docname="pfp.svg"
   inkscape:export-filename="/home/stagiaire/Bureau/html/portfolio/assets/img/pfp48.png"
   inkscape:export-xdpi="72"
   inkscape:export-ydpi="72"
   inkscape:version="0.92.3 (2405546, 2018-03-11)"><metadata
   id="metadata53"><rdf:RDF><cc:Work
       rdf:about=""><dc:format>image/svg+xml</dc:format><dc:type
         rdf:resource="http://purl.org/dc/dcmitype/StillImage" /></cc:Work></rdf:RDF></metadata><defs
   id="defs51" /><sodipodi:namedview
   pagecolor="#ffffff"
   bordercolor="#666666"
   borderopacity="1"
   objecttolerance="10"
   gridtolerance="10"
   guidetolerance="10"
   inkscape:pageopacity="0"
   inkscape:pageshadow="2"
   inkscape:window-width="818"
   inkscape:window-height="480"
   id="namedview49"
   showgrid="false"
   inkscape:zoom="3.6875"
   inkscape:cx="5.2344687"
   inkscape:cy="52.881356"
   inkscape:window-x="367"
   inkscape:window-y="227"
   inkscape:window-maximized="1"
   inkscape:current-layer="Calque_1" />
<g
   id="g46"
   transform="translate(0,0.27118644)">
	<path
   d="m 28.594,56.03 h 6.692 v -0.625 c 1.573,-0.018 2.737,0.014 2.712,-0.116 -0.026,-0.13 1.663,-3.889 1.663,-3.889 L 37.004,49.904 35.286,26.601 h -6.692 l -1.461,23.138 c -1.738,1.688 -2.563,1.464 -2.563,1.464 0,0 1.633,4.203 2.06,4.203 0.106,0 0.875,0.006 1.964,0.01 z"
   id="path2"
   inkscape:connector-curvature="0"
   style="clip-rule:evenodd;fill:#fcbf85;fill-rule:evenodd" />
	<path
   d="m 38.57,50.762 -1.443,0.478 -2.14,2.109 -2.773,-0.338 h -0.313 l -2.652,0.303 -2.455,-2.609 -2.062,0.058 c 2.154,1.903 1.61,5.988 3.863,6.175 1.251,0.104 5.06,1.397 6.986,0.118 1.884,-1.254 1.886,-5.065 2.989,-6.294"
   id="path4"
   inkscape:connector-curvature="0"
   style="clip-rule:evenodd;fill:#ffffff;fill-rule:evenodd" />
	<polygon
   points="30.571,57.027 29.362,60.254 33.934,60.329 33.207,57.179 34.629,55.428 33.188,52.934 31.017,52.934 29.549,55.673 "
   id="polygon6"
   style="clip-rule:evenodd;fill:#383c3e;fill-rule:evenodd" />
	<path
   d="M 46.41,16.267 H 17.83 c -0.039,0.172 -0.03,0.732 0.007,1.515 0.186,3.941 1.154,14.081 1.154,15.013 0,11.229 5.893,13.602 12.938,13.601 10.165,0.189 13.32,-4.122 13.32,-13.601 0,-0.932 0.969,-11.071 1.154,-15.013 0.038,-0.783 0.046,-1.344 0.007,-1.515"
   id="path8"
   inkscape:connector-curvature="0"
   style="clip-rule:evenodd;fill:#fdca97;fill-rule:evenodd" />
	<path
   d="m 15.744,29.514 c 0,1.385 1.564,2.611 3.297,2.611 l -0.158,-5.12 c -1.735,0 -3.139,1.123 -3.139,2.509"
   id="path10"
   inkscape:connector-curvature="0"
   style="clip-rule:evenodd;fill:#fdca97;fill-rule:evenodd" />
	<path
   d="m 48.489,29.514 c 0,1.385 -1.562,2.611 -3.297,2.611 l 0.159,-5.12 c 1.735,0 3.138,1.123 3.138,2.509"
   id="path12"
   inkscape:connector-curvature="0"
   style="clip-rule:evenodd;fill:#fdca97;fill-rule:evenodd" />
	<polygon
   points="36.719,59.038 40.527,51.082 38.849,48.439 33.188,52.934 "
   id="polygon14"
   style="clip-rule:evenodd;fill:#e5e2e2;fill-rule:evenodd" />
	<polygon
   points="27.485,59.038 23.677,51.082 25.266,48.204 31.017,52.934 "
   id="polygon16"
   style="clip-rule:evenodd;fill:#e5e2e2;fill-rule:evenodd" />
	<path
   d="m 42.346,10.765 c 0,0 -4.184,-5.633 -10.174,-4.749 -5.553,-0.819 -19.674,6.796 -14.957,17.145 0.947,0.102 1.792,-0.011 2.547,-0.254 3.52,1.711 17.709,-1.388 19.765,-5.303 0,0 4.677,4.998 5.818,9.588 0.755,0.243 8.06,-15.078 -2.999,-16.427"
   id="path18"
   inkscape:connector-curvature="0"
   style="clip-rule:evenodd;fill:#734936;fill-rule:evenodd" />
	<path
   d="m 39.527,17.604 c 0,0 4.677,4.998 5.818,9.588 0.754,0.242 8.06,-15.077 -3,-16.427 -0.429,-0.062 -2.818,6.839 -2.818,6.839"
   id="path20"
   inkscape:connector-curvature="0"
   style="clip-rule:evenodd;fill:#734936;fill-rule:evenodd" />
	<path
   d="m 24.391,17.878 c 0,0 -4.676,4.999 -5.817,9.588 -0.754,0.243 -8.06,-15.077 2.999,-16.426 0.429,-0.061 2.818,6.838 2.818,6.838"
   id="path22"
   inkscape:connector-curvature="0"
   style="clip-rule:evenodd;fill:#734936;fill-rule:evenodd" />
	<path
   d="M 42.543,13.874 C 45.51,6.712 30.116,3.651 30.117,3.67 c 0.031,0.333 0.687,1.301 0.746,1.433 -0.02,0 -3.527,-0.893 -6.918,-0.024 0,0 2.814,1.402 3.035,2.065 -4.781,-2.047 -8.682,-0.691 -8.654,-0.447 0,0 0.613,0.896 1.624,1.545 1.012,0.649 -2.972,0.595 -4.279,2.931 -0.022,0.003 1.439,-0.795 4.092,3.251 3.703,5.646 14.613,2.276 19.884,0.632 0.968,-0.304 2.601,-0.472 2.896,-1.182"
   id="path24"
   inkscape:connector-curvature="0"
   style="clip-rule:evenodd;fill:#734936;fill-rule:evenodd" />
	<path
   d="m 27.236,30.1 c 0,1.277 -0.569,1.829 -1.272,1.829 -0.703,0 -1.272,-0.552 -1.272,-1.829 0,-1.279 0.569,-1.91 1.272,-1.91 0.703,0 1.272,0.63 1.272,1.91"
   id="path26"
   inkscape:connector-curvature="0"
   style="fill:#111623" />
	<path
   d="m 39.166,30.1 c 0,1.277 -0.57,1.829 -1.272,1.829 -0.704,0 -1.272,-0.552 -1.272,-1.829 0,-1.279 0.568,-1.91 1.272,-1.91 0.702,-0.001 1.272,0.63 1.272,1.91"
   id="path28"
   inkscape:connector-curvature="0"
   style="fill:#111623" />
	<path
   d="m 29.407,25.493 c 0,0 -4.719,-2.807 -6.888,1.021"
   id="path30"
   inkscape:connector-curvature="0"
   style="fill:#734936" />
	<path
   d="m 35.811,25.493 c 0,0 3.759,-2.807 5.484,1.021"
   id="path32"
   inkscape:connector-curvature="0"
   style="fill:#734936" />
	<path
   d="m 28.637,40.514 c 0.965,2.466 6.043,3.383 7.734,0.803 l -7.734,-0.803"
   id="path34"
   inkscape:connector-curvature="0"
   style="fill:#ffffff" />
	<g
   id="g40">
		<path
   d="m 26.004,33.435 c -5.158,0 -4.181,-0.482 -4.181,-3.376 0,-3.784 0.793,-3.182 4.16,-3.182 4.219,0 4.198,-0.393 4.198,3.182 10e-4,3.005 0.374,3.391 -4.177,3.376 m 6.546,-4.496 h -1.117 c 0.033,-2.997 -0.263,-3.378 -5.429,-3.378 -4.988,0 -5.047,0.559 -5.377,2.662 l -2.625,-1.608 -0.136,0.908 2.553,2.208 -0.042,0.327 c 0,4.168 0.399,4.498 5.626,4.498 5.301,0 5.667,-0.706 5.625,-4.496 h 0.722"
   id="path36"
   inkscape:connector-curvature="0"
   style="clip-rule:evenodd;fill:#515457;fill-rule:evenodd" />
		<path
   d="m 37.99,33.435 c -4.551,0.016 -4.178,-0.37 -4.178,-3.376 0,-3.574 -0.021,-3.182 4.197,-3.182 3.367,0 4.16,-0.603 4.16,3.182 0.001,2.893 0.979,3.376 -4.179,3.376 m -5.625,-3.374 c -0.042,3.79 0.324,4.496 5.625,4.496 5.227,0 5.58,-0.199 5.58,-4.368 l 2.313,-2.7 -0.159,-1.069 -2.21,2.3 -0.077,-0.898 c -0.33,-2.104 -0.459,-2.259 -5.447,-2.259 -5.167,0 -5.634,0.459 -5.602,3.455"
   id="path38"
   inkscape:connector-curvature="0"
   style="clip-rule:evenodd;fill:#515457;fill-rule:evenodd" />
	</g>
	<path
   d="M 33.705,34.515 32.52,30.432 c -0.121,-0.417 -0.344,-0.673 -0.585,-0.673 -0.242,0 -0.466,0.256 -0.586,0.673 l -1.185,4.083 c -0.121,0.416 -0.121,0.931 0,1.347 0.121,0.416 0.548,0.512 0.789,0.512 h 0.982 0.98 c 0.243,0 0.669,-0.096 0.79,-0.512 0.12,-0.417 0.12,-0.931 0,-1.347"
   id="path42"
   inkscape:connector-curvature="0"
   style="fill:#fbb88b" />
	<path
   d="m 18.956,32.125 -0.051,3.824 c 0.137,1.012 0.263,2.143 0.715,3.405 0.496,1.386 2.47,5.271 6.343,6.38 8.197,2.35 16.529,0.555 18.65,-5.811 0.313,-0.932 0.858,-5.114 0.579,-7.799 0,0 -1.567,7.252 -3.178,6.981 -1.614,-0.27 -2.309,-2.282 -10.019,-1.763 -2.434,-0.184 -4.907,-0.578 -7.605,2.208 -2.11,2.183 -4.817,-1.905 -5.116,-7.427 h -0.318 z m 7.596,6.916 c 4.009,0.736 6.635,0.975 6.635,0.975 2.623,0 5.365,-0.282 5.365,-0.282 0.447,0.323 3.994,3.935 -0.307,4.911 -2.879,0.654 -4.197,-0.884 -4.197,-0.884 l -3.032,-0.033 c 0,0 -0.769,1.525 -3.134,1.115 -5.482,-0.95 -1.33,-5.802 -1.33,-5.802"
   id="path44"
   inkscape:connector-curvature="0"
   style="fill:#734936" />
</g>
</svg>